<svg width="800" height="800" viewBox="0 0 800 800" fill="none" xmlns="http://www.w3.org/2000/svg">
<rect width="800" height="800" rx="160" fill="url(#paint0_linear_3_151)"/>
<path d="M408 592.5C514.315 592.5 600.5 506.315 600.5 400C600.5 387.39 599.259 373.73 594.415 361.216C589.052 347.364 578.595 333.615 561.145 326.751C545.688 320.671 530.969 322.577 521.703 324.681C512.034 326.878 502.664 330.647 494.982 334.019C487.317 337.384 481.019 340.397 475.002 343.276C466.318 347.431 458.216 351.308 447.425 355.561C431.485 361.845 417.166 365.5 404 365.5C380.597 365.5 360.347 355.407 336.292 343.416C330.48 340.519 324.447 337.511 318.093 334.509C311.007 331.16 301.993 327.207 292.574 324.873C283.547 322.637 268.261 320.358 252.235 327.318C234.524 335.008 225.196 349.735 220.723 362.629C216.569 374.603 215.5 387.713 215.5 400C215.5 506.315 301.685 592.5 408 592.5Z" stroke="white" stroke-opacity="0.9" stroke-width="85"/>
<circle cx="408" cy="400" r="192.5" stroke="white" stroke-width="85"/>
<defs>
<linearGradient id="paint0_linear_3_151" x1="400" y1="0" x2="400" y2="800" gradientUnits="userSpaceOnUse">
<stop stop-color="#A969E6"/>
<stop offset="0.675" stop-color="#FF9B93"/>
<stop offset="1" stop-color="#EABF6D"/>
</linearGradient>
</defs>
</svg>
